<?xml version="1.0" encoding="UTF-8"?>
<svg id="Layer_1" xmlns="http://www.w3.org/2000/svg" version="1.1" viewBox="0 0 871.6 802.7">
  <defs>
    <style>
      .st0 {
        fill: #ff5100;
      }

      .st1 {
        fill: #53575a;
      }
    </style>
  </defs>
  <path class="st1" d="M614.2,139.6c-7.8-13.9-20.1-25.1-34.8-31.6-9.2-4.1-19.4-6.4-30.2-6.4H210.3c-8.8,0-17.2,1.5-25.1,4.3-20.6,7.3-37,23.5-44.7,44,0,.2-.2.4-.2.6-2.9,8-4.5,16.5-4.5,25.5v450.2c0,1,0,2,0,3.1.4,10,2.8,19.6,6.8,28.2,5.8,12.6,15.1,23.3,26.6,31,11.8,7.8,25.9,12.3,41,12.3h265.6l-31.4-24.2c-26.1-26.1-45.2-58.3-53.2-94.6-30.6-138.9,95.6-259.6,232.4-222.6v-183.2c0-13.3-3.5-25.7-9.6-36.5ZM394,337.9c-4,4-9.5,6.4-15.6,6.4h-144.7c-12.2,0-22-9.9-22-22s2.5-11.6,6.4-15.6,9.5-6.4,15.6-6.4h144.7c12.2,0,22,9.9,22,22s-2.5,11.6-6.4,15.6ZM456.9,248.1c-4,4-9.5,6.4-15.6,6.4h-207.6c-12.2,0-22-9.9-22-22s2.5-11.6,6.4-15.6,9.5-6.4,15.6-6.4h207.6c12.2,0,22,9.9,22,22s-2.5,11.6-6.4,15.6Z"/>
  <path class="st0" d="M559.4,380.7c-121.6,10.3-186.2,152.5-115.9,252.5,66.7,94.9,211.4,89.5,269.9-10.9,66.4-113.8-23.4-252.7-154-241.6ZM633,528.2l-55.8,55.8c-8.6,8.6-22.5,8.6-31.1,0l-28.9-28.9c-8.6-8.6-8.6-22.5,0-31.1,4.3-4.3,9.9-6.4,15.6-6.4,5.6,0,11.3,2.1,15.6,6.4l13.3,13.3,40.2-40.2c8.6-8.6,22.5-8.6,31.1,0,4.3,4.3,6.4,9.9,6.4,15.6s-2.1,11.3-6.4,15.6Z"/>
</svg>
