<?xml version="1.0" encoding="UTF-8"?>
<svg id="Capa_1" xmlns="http://www.w3.org/2000/svg" version="1.1" viewBox="0 0 65 65">
  <!-- Generator: Adobe Illustrator 29.2.0, SVG Export Plug-In . SVG Version: 2.1.0 Build 108)  -->
  <defs>
    <style>
      .st0 {
        fill: #545759;
      }

      .st1 {
        fill: #fff;
      }

      .st2 {
        fill: #f05e17;
      }
    </style>
  </defs>
  <rect class="st0" width="65" height="65"/>
  <g>
    <rect class="st1" x="6.8" y="22.2" width="4.5" height="20.5"/>
    <polygon class="st2" points="36.5 22.2 41.9 22.2 50.1 32.5 41.9 42.8 36.5 42.8 44.8 32.5 36.5 22.2"/>
    <polygon class="st1" points="52.8 22.3 48.4 27.8 51.1 31.1 58.2 22.3 52.8 22.3"/>
    <polygon class="st1" points="58.2 42.8 52.9 42.8 48.4 37.3 51.1 33.9 58.2 42.8"/>
    <path class="st1" d="M13,22.2h5.3s3.9.5,3.9,4.6v16h-4.5v-16.4h-4.7v-4.1Z"/>
    <path class="st1" d="M24.1,22.2h5.3s3.9.5,3.9,4.6v16h-4.5v-16.4h-4.7v-4.1Z"/>
  </g>
</svg>
